<svg display="none"
     xmlns="http://www.w3.org/2000/svg">

    <symbol>
        <svg id="pulse" viewBox="0 0 16 16">
            <path fill="inherit"
                  d="M15 8.00001C15 8.13262 14.9473 8.25979 14.8536 8.35356C14.7598 8.44733 14.6326 8.50001 14.5 8.50001H12.8088L10.4475 13.2238C10.4059 13.3068 10.342 13.3767 10.263 13.4255C10.184 13.4743 10.0929 13.5001 10 13.5H9.975C9.87801 13.4952 9.78452 13.4623 9.70594 13.4052C9.62736 13.3482 9.5671 13.2695 9.5325 13.1788L5.95937 3.79751L3.955 8.20688C3.91529 8.29426 3.85127 8.36836 3.77059 8.42034C3.68991 8.47231 3.59597 8.49997 3.5 8.50001H1.5C1.36739 8.50001 1.24021 8.44733 1.14645 8.35356C1.05268 8.25979 1 8.13262 1 8.00001C1 7.8674 1.05268 7.74022 1.14645 7.64646C1.24021 7.55269 1.36739 7.50001 1.5 7.50001H3.17812L5.545 2.29313C5.5858 2.20328 5.65229 2.12751 5.73607 2.07537C5.81985 2.02323 5.91719 1.99705 6.01583 2.00012C6.11447 2.00319 6.20999 2.03539 6.29036 2.09265C6.37074 2.1499 6.43237 2.22966 6.4675 2.32188L10.0619 11.7594L12.0525 7.77751C12.0939 7.69421 12.1577 7.6241 12.2368 7.57508C12.3158 7.52606 12.407 7.50006 12.5 7.50001H14.5C14.6326 7.50001 14.7598 7.55269 14.8536 7.64646C14.9473 7.74022 15 7.8674 15 8.00001Z"/>
        </svg>
    </symbol>

    <symbol>
        <svg id="alien" viewBox="0 0 16 16">
            <path fill="inherit"
                  d="M8 1C6.40926 1.00182 4.88419 1.63455 3.75937 2.75937C2.63455 3.88419 2.00182 5.40926 2 7C2 8.5 2.785 10.4412 4.10063 12.1875C5.42438 13.9469 6.88188 15 8 15C9.11812 15 10.5756 13.9494 11.8994 12.1875C13.215 10.4375 14 8.5 14 7C13.9982 5.40926 13.3655 3.88419 12.2406 2.75937C11.1158 1.63455 9.59074 1.00182 8 1ZM11.1006 11.5887C10.015 13.0306 8.76937 14 8 14C7.23063 14 5.985 13.0306 4.89937 11.5887C3.72812 10.0312 3 8.27313 3 7C3 5.67392 3.52678 4.40215 4.46447 3.46447C5.40215 2.52678 6.67392 2 8 2C9.32608 2 10.5979 2.52678 11.5355 3.46447C12.4732 4.40215 13 5.67392 13 7C13 8.27313 12.2719 10.0312 11.1006 11.5887ZM7.5 8.5C7.5 7.83696 7.23661 7.20107 6.76777 6.73223C6.29893 6.26339 5.66304 6 5 6C4.73478 6 4.48043 6.10536 4.29289 6.29289C4.10536 6.48043 4 6.73478 4 7C4 7.66304 4.26339 8.29893 4.73223 8.76777C5.20107 9.23661 5.83696 9.5 6.5 9.5C6.76522 9.5 7.01957 9.39464 7.20711 9.20711C7.39464 9.01957 7.5 8.76522 7.5 8.5ZM5 7C5.39782 7 5.77936 7.15804 6.06066 7.43934C6.34196 7.72064 6.5 8.10218 6.5 8.5C6.10218 8.5 5.72064 8.34196 5.43934 8.06066C5.15804 7.77936 5 7.39782 5 7ZM11 6C10.337 6 9.70107 6.26339 9.23223 6.73223C8.76339 7.20107 8.5 7.83696 8.5 8.5C8.5 8.76522 8.60536 9.01957 8.79289 9.20711C8.98043 9.39464 9.23478 9.5 9.5 9.5C9.8283 9.5 10.1534 9.43534 10.4567 9.3097C10.76 9.18406 11.0356 8.99991 11.2678 8.76777C11.4999 8.53562 11.6841 8.26002 11.8097 7.95671C11.9353 7.65339 12 7.3283 12 7C12 6.73478 11.8946 6.48043 11.7071 6.29289C11.5196 6.10536 11.2652 6 11 6ZM9.5 8.5C9.5 8.10218 9.65804 7.72064 9.93934 7.43934C10.2206 7.15804 10.6022 7 11 7C11 7.39782 10.842 7.77936 10.5607 8.06066C10.2794 8.34196 9.89782 8.5 9.5 8.5ZM9.5 11.5C9.5 11.6326 9.44732 11.7598 9.35355 11.8536C9.25979 11.9473 9.13261 12 9 12H7C6.86739 12 6.74021 11.9473 6.64645 11.8536C6.55268 11.7598 6.5 11.6326 6.5 11.5C6.5 11.3674 6.55268 11.2402 6.64645 11.1464C6.74021 11.0527 6.86739 11 7 11H9C9.13261 11 9.25979 11.0527 9.35355 11.1464C9.44732 11.2402 9.5 11.3674 9.5 11.5Z"/>
        </svg>
    </symbol>

    <symbol>
        <svg id="planet" viewBox="0 0 16 16">
            <path fill="inherit"
                  d="M15.3194 3.7925C14.8412 2.96813 13.5794 2.7825 11.6631 3.25125C10.776 2.56528 9.7142 2.14186 8.59845 2.02911C7.48271 1.91635 6.3577 2.11877 5.35124 2.61338C4.34478 3.10798 3.4972 3.87495 2.9048 4.82714C2.31241 5.77933 1.99893 6.87857 1.99999 8C2.00007 8.25723 2.01635 8.5142 2.04874 8.76938C0.318112 10.5625 0.343112 11.625 0.681237 12.2075C0.999987 12.76 1.66499 13 2.53999 13C3.1475 12.9874 3.75143 12.9035 4.33936 12.75C5.22662 13.4353 6.28825 13.8581 7.40371 13.9704C8.51917 14.0828 9.64378 13.8801 10.6498 13.3854C11.6559 12.8907 12.5031 12.1239 13.0953 11.1719C13.6875 10.22 14.0009 9.1211 14 8C14.0001 7.74403 13.984 7.48831 13.9519 7.23438C14.7331 6.42188 15.2531 5.65 15.43 4.98938C15.5519 4.53188 15.515 4.12938 15.3194 3.7925ZM7.99999 3C9.13245 3.00117 10.2311 3.38621 11.1165 4.09227C12.0019 4.79833 12.6218 5.7837 12.875 6.8875C11.8087 7.89125 10.3656 8.92063 8.99561 9.70813C7.27374 10.6963 5.77999 11.3125 4.58874 11.65C3.85503 10.9657 3.34434 10.0764 3.12315 9.09776C2.90196 8.11915 2.98051 7.09663 3.34859 6.16329C3.71666 5.22996 4.3572 4.42906 5.18682 3.86486C6.01644 3.30066 6.9967 2.99929 7.99999 3ZM1.54624 11.7056C1.45499 11.5488 1.50561 11.2531 1.68499 10.8931C1.86237 10.5558 2.07818 10.2402 2.32811 9.9525C2.57586 10.6703 2.95762 11.3346 3.45311 11.91C2.37499 12.0913 1.70249 11.9756 1.54624 11.7056ZM7.99999 13C7.15694 13.0009 6.32756 12.7871 5.58999 12.3788C6.94379 11.9 8.25006 11.2961 9.49186 10.575C10.8406 9.80063 12.0344 8.96125 12.9962 8.1325C12.9606 9.43447 12.4188 10.6713 11.4859 11.5801C10.553 12.489 9.30245 12.9984 7.99999 13ZM14.4637 4.73063C14.3575 5.125 14.0769 5.57625 13.6744 6.05125C13.4273 5.33258 13.0454 4.66759 12.5494 4.09188C13.4375 3.945 14.26 3.95625 14.4556 4.29438C14.5119 4.3925 14.515 4.53938 14.4637 4.73063Z"/>
        </svg>
    </symbol>

    <symbol>
        <svg id="info" viewBox="0 0 24 24">
            <path fill="inherit"
                  d="M12 2.25C10.0716 2.25 8.18657 2.82183 6.58319 3.89317C4.97982 4.96451 3.73013 6.48726 2.99218 8.26884C2.25422 10.0504 2.06114 12.0108 2.43735 13.9021C2.81355 15.7934 3.74215 17.5307 5.10571 18.8943C6.46928 20.2579 8.20656 21.1865 10.0979 21.5627C11.9892 21.9389 13.9496 21.7458 15.7312 21.0078C17.5127 20.2699 19.0355 19.0202 20.1068 17.4168C21.1782 15.8134 21.75 13.9284 21.75 12C21.7473 9.41498 20.7192 6.93661 18.8913 5.10872C17.0634 3.28084 14.585 2.25273 12 2.25ZM12 20.25C10.3683 20.25 8.77326 19.7661 7.41655 18.8596C6.05984 17.9531 5.00242 16.6646 4.378 15.1571C3.75358 13.6496 3.5902 11.9908 3.90853 10.3905C4.22685 8.79016 5.01259 7.32015 6.16637 6.16637C7.32016 5.01259 8.79017 4.22685 10.3905 3.90852C11.9909 3.59019 13.6497 3.75357 15.1571 4.37799C16.6646 5.00242 17.9531 6.05984 18.8596 7.41655C19.7661 8.77325 20.25 10.3683 20.25 12C20.2475 14.1873 19.3775 16.2843 17.8309 17.8309C16.2843 19.3775 14.1873 20.2475 12 20.25ZM13.5 16.5C13.5 16.6989 13.421 16.8897 13.2803 17.0303C13.1397 17.171 12.9489 17.25 12.75 17.25C12.3522 17.25 11.9706 17.092 11.6893 16.8107C11.408 16.5294 11.25 16.1478 11.25 15.75V12C11.0511 12 10.8603 11.921 10.7197 11.7803C10.579 11.6397 10.5 11.4489 10.5 11.25C10.5 11.0511 10.579 10.8603 10.7197 10.7197C10.8603 10.579 11.0511 10.5 11.25 10.5C11.6478 10.5 12.0294 10.658 12.3107 10.9393C12.592 11.2206 12.75 11.6022 12.75 12V15.75C12.9489 15.75 13.1397 15.829 13.2803 15.9697C13.421 16.1103 13.5 16.3011 13.5 16.5ZM10.5 7.875C10.5 7.6525 10.566 7.43499 10.6896 7.24998C10.8132 7.06498 10.9889 6.92078 11.1945 6.83564C11.4001 6.75049 11.6263 6.72821 11.8445 6.77162C12.0627 6.81502 12.2632 6.92217 12.4205 7.0795C12.5778 7.23684 12.685 7.43729 12.7284 7.65552C12.7718 7.87375 12.7495 8.09995 12.6644 8.30552C12.5792 8.51109 12.435 8.68679 12.25 8.8104C12.065 8.93402 11.8475 9 11.625 9C11.3266 9 11.0405 8.88147 10.8295 8.6705C10.6185 8.45952 10.5 8.17337 10.5 7.875Z"/>
        </svg>
    </symbol>

    <symbol>
        <svg id="heart_fill" viewBox="0 0 48 48">
            <path fill="#11B0C8"
                  d="M45 17.625C45 30.75 25.5394 41.3737 24.7106 41.8125C24.4922 41.93 24.248 41.9915 24 41.9915C23.752 41.9915 23.5078 41.93 23.2894 41.8125C22.4606 41.3737 3 30.75 3 17.625C3.00347 14.5429 4.22936 11.5881 6.40872 9.40872C8.58808 7.22936 11.5429 6.00347 14.625 6C18.4969 6 21.8869 7.665 24 10.4794C26.1131 7.665 29.5031 6 33.375 6C36.4571 6.00347 39.4119 7.22936 41.5913 9.40872C43.7706 11.5881 44.9965 14.5429 45 17.625Z"/>
        </svg>
    </symbol>

    <symbol>
        <svg id="heart_stroke" viewBox="0 0 48 48">
            <path fill="#11B0C8"
                  d="M33.375 6C29.5031 6 26.1131 7.665 24 10.4794C21.8869 7.665 18.4969 6 14.625 6C11.5429 6.00347 8.58808 7.22936 6.40872 9.40872C4.22936 11.5881 3.00347 14.5429 3 17.625C3 30.75 22.4606 41.3737 23.2894 41.8125C23.5078 41.93 23.752 41.9915 24 41.9915C24.248 41.9915 24.4922 41.93 24.7106 41.8125C25.5394 41.3737 45 30.75 45 17.625C44.9965 14.5429 43.7706 11.5881 41.5913 9.40872C39.4119 7.22936 36.4571 6.00347 33.375 6ZM24 38.775C20.5763 36.78 6 27.6919 6 17.625C6.00298 15.3384 6.91264 13.1463 8.52949 11.5295C10.1463 9.91264 12.3384 9.00298 14.625 9C18.2719 9 21.3337 10.9425 22.6125 14.0625C22.7255 14.3376 22.9178 14.5729 23.1648 14.7385C23.4119 14.9041 23.7026 14.9925 24 14.9925C24.2974 14.9925 24.5881 14.9041 24.8352 14.7385C25.0822 14.5729 25.2745 14.3376 25.3875 14.0625C26.6662 10.9369 29.7281 9 33.375 9C35.6616 9.00298 37.8537 9.91264 39.4705 11.5295C41.0874 13.1463 41.997 15.3384 42 17.625C42 27.6769 27.42 36.7781 24 38.775Z"/>
        </svg>
    </symbol>

</svg>